# xmcd CD database file
#
# Track frame offsets:
#	150
#	19927
#	27067
#	53713
#	69156
#	80700
#	104069
#	132329
#	145726
#	164418
#	190987
#	206230
#	209332
#	243497
#	248128
#	279098
#
# Disc length: 4329 seconds
#
# Revision: 1
# Processed by: cddbd v1.5.2PL0 Copyright (c) Steve Scherf et al.
# Submitted via: CDex 1.51
#
DISCID=e910e710
DTITLE=B. B. King - A&R Studios, New York '71
DYEAR=1971
DGENRE=Blues
TTITLE0=Instrumental -> WPLJ Intro
TTITLE1=Everyday I Have The Blues
TTITLE2=How Blue Can You Get
TTITLE3=Whole Lotta Love
TTITLE4=Instrumental
TTITLE5=Ghetto Woman
TTITLE6=I Got Some Help I Don't Need
TTITLE7=Ain't That Just Like A Woman
TTITLE8=Instrumental
TTITLE9=Sweet Sixteen
TTITLE10=Hummnigbird Part 1
TTITLE11=Hummingbird Part 2
TTITLE12=I Need My Baby -> Guess Who
TTITLE13=Band Introductions
TTITLE14=The Thrill Is Gone
TTITLE15=Why I Sing The Blues -> WLPH Outro
EXTD=YEAR: 1971
EXTT0=
EXTT1=
EXTT2=
EXTT3=
EXTT4=
EXTT5=
EXTT6=
EXTT7=
EXTT8=
EXTT9=
EXTT10=
EXTT11=
EXTT12=
EXTT13=
EXTT14=
EXTT15=
PLAYORDER=
